<?xml version="1.0" encoding="iso-8859-1"?>
<!-- Generator: Adobe Illustrator 16.0.0, SVG Export Plug-In . SVG Version: 6.00 Build 0)  -->
<!DOCTYPE svg PUBLIC "-//W3C//DTD SVG 1.1//EN" "http://www.w3.org/Graphics/SVG/1.1/DTD/svg11.dtd">
<svg version="1.1" id="Capa_1" xmlns="http://www.w3.org/2000/svg" xmlns:xlink="http://www.w3.org/1999/xlink" x="0px" y="0px"
	 width="487.064px" height="487.064px" viewBox="0 0 487.064 487.064" style="enable-background:new 0 0 487.064 487.064;"
	 xml:space="preserve">
<g>
	<g id="Layer_2_21_">
		<g>
			<path d="M186.682,226.555c13.81,0,25.04-11.208,25.04-25.054c0-13.832-11.23-25.058-25.04-25.058
				c-13.85,0-25.078,11.226-25.078,25.058C161.604,215.314,172.832,226.555,186.682,226.555z M191.816,191.749
				c7.095,0,12.821,5.76,12.821,12.842c0,7.112-5.726,12.874-12.821,12.874c-7.094,0-12.843-5.762-12.843-12.874
				C178.975,197.508,184.724,191.749,191.816,191.749z"/>
			<path d="M300.312,226.555c13.846,0,25.059-11.241,25.059-25.054c0-13.832-11.213-25.058-25.059-25.058
				c-13.83,0-25.021,11.226-25.021,25.058C275.291,215.314,286.469,226.555,300.312,226.555z M295.191,191.749
				c7.1,0,12.842,5.76,12.842,12.842c-0.014,7.112-5.742,12.874-12.842,12.874c-7.094,0-12.841-5.762-12.841-12.874
				C282.351,197.508,288.098,191.749,295.191,191.749z"/>
			<path d="M93.856,248.803c0.7,1.232,1.424,2.633,2.156,3.854h0.001c0.681,1.482,1.431,3.016,2.053,4.016
				c13.712,21.561,32.331,41.028,53.627,55.831c28.585,19.87,60.234,30.373,91.526,30.373c31.297,0,62.949-10.505,91.537-30.38
				c18.037-12.541,34.146-28.436,46.988-46.107c0.002,0.002,0.006,0.006,0.008,0.008c0.055-0.078,0.135-0.194,0.211-0.306
				c2.523-3.485,4.914-7.042,7.17-10.655c0.982-1.504,1.727-2.689,1.918-3.111c0,0,0.004-0.008,0.006-0.01
				c0.697-1.168,1.395-2.336,2.062-3.514c14.006-0.77,33.354-7.017,40.104-34.069c1.607-6.299,2.531-13.73,2.531-22.506
				c0-2.091-0.105-4.162-0.291-6.211c-1.211-21.789-8.549-37.815-21.248-46.726c-0.186-1.387-0.396-2.767-0.619-4.143
				c-5.561-34.351-22.76-65.099-47.709-88.563C335.283,17.804,293.03,0,246.389,0c-46.641,0-88.897,17.804-119.502,46.583
				c-24.944,23.464-42.144,54.213-47.706,88.564c-13.942,9.782-27.87,32.262-27.87,57.413
				C51.312,238.619,76.625,247.855,93.856,248.803z M107.377,224.706c1.018-1.605,1.891-3.356,2.65-5.223
				c1.773-4.18,3.043-8.916,3.677-14.005c3.542-21.054,2.047-39.497,18.741-49.639c14.152-8.724,32.876-35.598,47.908-56.396
				c4.189-5.796,12.939-4.921,19.101-0.296c21.023,15.782,47.081,27.417,71.715,36c43.117,15.021,82.084,20.429,83.357,20.691
				c1.834,0.379,3.453,0.907,4.891,1.553c11.492,7.002,10.785,29,13.941,47.752c0.633,5.089,1.902,9.825,3.676,14.005
				c0.76,1.866,1.633,3.618,2.65,5.223c0.207,0.344,0.414,0.688,0.631,1.02c-0.158-0.02-0.25-0.033-0.25-0.033l-3.436,6.669
				c-1.043,2.022-2.133,4.084-3.271,6.159c-2.742,4.775-5.834,9.562-9.26,14.292c-25.752,35.582-69.993,67.988-120.882,67.988
				c-41.185,0-78.015-21.229-104.215-48.183c17.953,3.954,36.469,5.552,50.875,6.204c1.119,1.445,3.623,3.406,8.79,3.406
				c4.274,0,19.771,0.854,25.002,1.15c0.575,0.062,1.156,0.1,1.748,0.1c8.836,0,16-7.162,16-16c0-8.836-7.164-16-16-16
				c-2.642,0-5.128,0.651-7.325,1.787l-0.009-0.037l-0.563,0.346c-0.372,0.211-0.739,0.43-1.092,0.669l-16.643,10.2
				c-4.486-0.475-7.877,1.152-9.84,3.633c-18.366-0.395-42.53-2.646-62.893-9.04c-1.578-1.987-3.092-3.991-4.555-6.005
				c-4.78-6.623-8.643-13.688-12.069-20.337l-3.436-6.669c0,0-0.092,0.013-0.249,0.033
				C106.962,225.393,107.17,225.049,107.377,224.706z"/>
			<path d="M167.576,349.988l-0.009-0.008c0,0-0.053,0-0.129,0c-0.005,0-0.011,0-0.016,0c-0.009,0-0.017,0-0.025,0
				c-1.867,0.021-19.558,0.211-24.247,0.211c-34.842,0-81.504,31.729-81.504,72.172c0,40.438,0,64.701,0,64.701h144.763
				c-14.045-34.074-26.56-117.918-27.884-126.961C178.007,354.479,173.316,350.068,167.576,349.988z"/>
			<path d="M243.995,386.275c-0.009,0-0.019,0.002-0.028,0.002c-0.009,0-0.019-0.002-0.028-0.002
				c-7.043,0-12.754,5.713-12.754,12.754c0,7.045,5.711,12.756,12.754,12.756c0.01,0,0.019,0,0.028,0c0.009,0,0.019,0,0.028,0
				c7.042,0,12.753-5.711,12.753-12.756C256.748,391.988,251.037,386.275,243.995,386.275z"/>
			<path d="M243.995,433.559c-0.009,0-0.019,0.002-0.028,0.002c-0.009,0-0.019-0.002-0.028-0.002
				c-7.043,0-12.754,5.711-12.754,12.758c0,7.043,5.711,12.752,12.754,12.752c0.01,0,0.019-0.002,0.028-0.002
				c0.009,0,0.019,0.002,0.028,0.002c7.042,0,12.753-5.709,12.753-12.752C256.748,439.27,251.037,433.559,243.995,433.559z"/>
			<path d="M344.783,350.191c-4.689,0-22.379-0.189-24.246-0.211c-0.008,0-0.018,0-0.025,0c-0.006,0-0.012,0-0.018,0
				c-0.076,0-0.129,0-0.129,0l-0.01,0.008c-5.74,0.08-10.432,4.49-10.949,10.115c-1.324,9.043-13.838,92.887-27.883,126.961h144.764
				c0,0,0-24.264,0-64.701C426.287,381.921,379.625,350.191,344.783,350.191z"/>
		</g>
	</g>
</g>
<g>
</g>
<g>
</g>
<g>
</g>
<g>
</g>
<g>
</g>
<g>
</g>
<g>
</g>
<g>
</g>
<g>
</g>
<g>
</g>
<g>
</g>
<g>
</g>
<g>
</g>
<g>
</g>
<g>
</g>
</svg>
